<svg width="266" height="44" viewBox="0 0 266 44" fill="none" xmlns="http://www.w3.org/2000/svg">
<g clip-path="url(#clip0_1_9706)">
<path d="M73 22V44H133H193V22V1.50502e-06H133H73V22ZM190.995 22V42.019L133.032 41.9981L75.058 41.9668L75.0264 21.9687L75.0053 1.98104H133H190.995V22Z" fill="#979797"/>
<path d="M83.343 10.6768V11.2398L83.7968 11.3128C84.0396 11.3441 84.3984 11.4066 84.5884 11.4379L84.9261 11.4901L84.905 21.9896L84.8734 32.4787L84.1135 32.5621L83.343 32.6559V33.2711V33.8863H87.3536H91.3641V33.2711V32.6559L90.6042 32.5621L89.8338 32.4787L89.8021 27.7033L89.781 22.9384H95.0581H100.335V27.672C100.335 31.6237 100.314 32.4161 100.187 32.4578C100.103 32.4891 99.7019 32.5517 99.2902 32.5934L98.5409 32.6664V33.2711V33.8863H102.657H106.773V33.2711V32.6559L106.066 32.5829C105.686 32.5412 105.306 32.4891 105.222 32.4578C105.106 32.4161 105.084 30.5393 105.084 21.9479V11.4901L105.507 11.4275C105.739 11.3962 106.119 11.3337 106.351 11.3024L106.773 11.2398V10.6768V10.1137H102.657H98.5409V10.6768V11.2398L99.0475 11.3024C99.3219 11.3441 99.723 11.3962 99.9446 11.4275L100.335 11.4901V15.963V20.436H95.0581H89.781V15.963V11.4901L90.2348 11.4171C91.4802 11.2294 91.3641 11.3024 91.3641 10.6768V10.1137H87.3536H83.343V10.6768Z" fill="#979797"/>
<path d="M112.989 10.4057C110.794 11.5318 111.67 14.8057 114.161 14.8057C114.91 14.8057 115.491 14.5346 115.976 13.982C116.768 13.0645 116.768 11.855 115.966 10.9374C115.227 10.072 114.034 9.86351 112.989 10.4057Z" fill="#979797"/>
<path d="M121.232 10.6246V11.1355L121.95 11.219L122.657 11.3128L122.689 21.9687L122.71 32.6142L122.425 32.6768C122.256 32.7081 121.929 32.7602 121.686 32.7915L121.232 32.8645V33.3754V33.8863H124.979H128.726V33.3754V32.8645L128.282 32.7915C128.029 32.7602 127.702 32.7081 127.544 32.6768L127.248 32.6142V21.364V10.1137H124.24H121.232V10.6246Z" fill="#979797"/>
<path d="M135.723 12.7621L133.58 13.3981V15.1915V16.9953H131.944H130.309V17.7773V18.5593H131.881H133.464L133.496 24.8882C133.538 31.9365 133.538 31.8635 134.266 32.8645C135.375 34.3659 138.689 34.5223 142.636 33.2502L143.29 33.0313V32.4578V31.8844L142.974 31.9574C142.794 31.9991 142.045 32.0303 141.306 32.0303C139.385 32.0408 138.773 31.8114 138.309 30.8834L138.066 30.3934L138.034 24.4711L138.003 18.5593H140.018H142.024V17.7773V16.9953H140.018H138.013V14.545C138.013 13.2 137.981 12.0948 137.939 12.1052C137.886 12.1156 136.894 12.4076 135.723 12.7621Z" fill="#979797"/>
<path d="M151.945 16.5365C150.361 16.745 148.388 17.527 147.28 18.3924C145.982 19.4142 144.937 21.0407 144.451 22.782C144.124 23.9498 144.04 26.546 144.282 27.9327C144.631 29.872 145.201 31.0711 146.351 32.218C147.723 33.5839 149.612 34.2512 152.472 34.3659C155.491 34.5014 157.96 33.709 159.755 32.0407C161.454 30.4663 162.245 28.6417 162.361 26.0663C162.435 24.4294 162.277 23.1886 161.823 21.8749C161.359 20.509 160.916 19.8104 159.913 18.8199C159.227 18.1317 158.879 17.8919 158.066 17.4853C156.683 16.818 155.617 16.5782 153.792 16.5261C152.979 16.5052 152.145 16.5156 151.945 16.5365ZM153.844 17.8294C155.079 18.0588 155.923 18.7573 156.536 20.0711C157.201 21.4891 157.433 22.8654 157.433 25.4825C157.433 30.7062 156.145 33.0626 153.264 33.073C152.219 33.0834 151.459 32.7915 150.815 32.1242C149.475 30.7687 148.821 27.6199 149.095 23.9289C149.369 20.2275 150.499 18.2256 152.504 17.8294C153.127 17.7147 153.222 17.7147 153.844 17.8294Z" fill="#979797"/>
<path d="M175.501 16.6929C174.182 16.8597 172.557 17.5792 171.174 18.6114C170.752 18.9242 170.351 19.1848 170.298 19.1848C170.245 19.1848 170.203 18.6948 170.203 18.0901V16.9953H167.195H164.187V17.5583V18.1213L164.694 18.1839C164.968 18.2256 165.317 18.2777 165.485 18.309L165.77 18.3716V25.4929V32.6142L165.169 32.6768C164.187 32.7915 164.187 32.7915 164.187 33.3754V33.8863H167.987H171.786V33.3649C171.786 33.073 171.755 32.8436 171.712 32.8332C171.66 32.8228 171.322 32.7706 170.942 32.6976L170.256 32.5829V26.5356V20.4882L170.784 20.1441C171.079 19.9564 171.691 19.654 172.156 19.4768C172.884 19.1848 173.127 19.1431 173.95 19.1327C174.995 19.1327 175.48 19.31 176.029 19.8834C176.863 20.7488 176.979 21.7185 176.937 27.8389L176.905 32.5829L176.219 32.6976C175.839 32.7706 175.501 32.8228 175.459 32.8332C175.406 32.8436 175.375 33.073 175.375 33.3649V33.8863H179.174H182.974V33.3754C182.974 32.7915 182.974 32.7915 182.003 32.6872L181.401 32.6142L181.369 26.546C181.338 20.5403 181.327 20.4777 181.084 19.7583C180.757 18.7678 180.441 18.2569 179.807 17.6938C179.185 17.1412 178.393 16.818 177.338 16.6825C176.493 16.5678 176.419 16.5678 175.501 16.6929Z" fill="#979797"/>
<path d="M110.362 17.5062V18.0171L110.868 18.0796C111.143 18.1213 111.491 18.1735 111.66 18.2047L111.945 18.2673L111.924 25.4199L111.892 32.5829L111.206 32.6976C110.826 32.7706 110.488 32.8228 110.446 32.8332C110.393 32.8436 110.362 33.073 110.362 33.3649V33.8863H114.172H117.971L117.939 33.4066C117.897 32.8332 117.823 32.7706 116.99 32.6872L116.377 32.6246V24.8047V16.9953H113.369H110.362V17.5062Z" fill="#979797"/>
</g>
<defs>
<clipPath id="clip0_1_9706">
<rect width="120" height="44" fill="white" transform="translate(73)"/>
</clipPath>
</defs>
</svg>
