<svg width="1257" height="137" viewBox="0 0 1257 137" fill="none" xmlns="http://www.w3.org/2000/svg">
<path d="M39.8805 137H0L51.7996 0H101.2L153 137H113.12L77.0622 34.5176H75.8628L39.8805 137ZM34.5581 83.083H117.917V108.235H34.5581V83.083Z" fill="white"/>
<path d="M534 1.82493H578.742L616.695 84.4681H618.447L656.401 1.82493H701.142V135.305H665.962V53.314H664.721L628.811 134.458H606.331L570.421 52.8578H569.18V135.305H534V1.82493Z" fill="white"/>
<path d="M723.677 135.305V1.82493H827.904V28.0257H759.806V55.3996H822.576V81.6656H759.806V109.105H827.904V135.305H723.677Z" fill="white"/>
<path d="M977.748 1.82493V135.305H947.093L887.608 58.2674H886.659V135.305H850.53V1.82493H881.623L940.451 78.7326H941.692V1.82493H977.748Z" fill="white"/>
<path d="M995.576 28.0257V1.82493H1121.92V28.0257H1076.59V135.305H1040.97V28.0257H995.576Z" fill="white"/>
<path d="M1220.36 41.843C1219.87 37.0634 1217.71 33.3484 1213.86 30.6979C1210.07 28.004 1204.64 26.657 1197.59 26.657C1192.92 26.657 1189.02 27.2001 1185.91 28.2864C1182.8 29.3727 1180.46 30.8717 1178.9 32.7835C1177.35 34.6519 1176.54 36.8027 1176.49 39.236C1176.4 41.2347 1176.83 42.9944 1177.81 44.5152C1178.83 46.036 1180.29 47.383 1182.19 48.5561C1184.13 49.6859 1186.47 50.6852 1189.19 51.5542C1191.92 52.4233 1194.98 53.1836 1198.39 53.8354L1211.24 56.4424C1218.63 57.8763 1225.15 59.7881 1230.8 62.1779C1236.49 64.5677 1241.26 67.4137 1245.1 70.716C1249 74.0182 1251.94 77.8202 1253.93 82.1218C1255.93 86.4234 1256.95 91.2464 1257 96.5909C1256.95 105.02 1254.57 112.255 1249.85 118.294C1245.13 124.334 1238.34 128.962 1229.48 132.177C1220.68 135.392 1210.04 137 1197.59 137C1185.08 137 1174.18 135.327 1164.89 131.981C1155.6 128.636 1148.37 123.552 1143.21 116.73C1138.05 109.909 1135.4 101.284 1135.26 90.8554H1169.85C1170.14 95.157 1171.43 98.7417 1173.72 101.609C1176.01 104.477 1179.15 106.65 1183.14 108.127C1187.17 109.604 1191.85 110.343 1197.15 110.343C1202.02 110.343 1206.15 109.756 1209.56 108.583C1213.01 107.41 1215.66 105.781 1217.51 103.695C1219.36 101.609 1220.31 99.2196 1220.36 96.5257C1220.31 94.0055 1219.44 91.8547 1217.73 90.0733C1216.03 88.2483 1213.4 86.6841 1209.85 85.3806C1206.35 84.0336 1201.87 82.7953 1196.42 81.6656L1180.8 78.4068C1167.86 75.7563 1157.66 71.4764 1150.22 65.5671C1142.77 59.6143 1139.08 51.576 1139.12 41.452C1139.08 33.1963 1141.56 25.9618 1146.57 19.7483C1151.58 13.5349 1158.51 8.69014 1167.37 5.21409C1176.23 1.73803 1186.32 0 1197.66 0C1209.24 0 1219.29 1.75975 1227.8 5.27925C1236.37 8.75531 1243.01 13.6435 1247.73 19.9439C1252.45 26.2442 1254.86 33.5439 1254.96 41.843H1220.36Z" fill="white"/>
<path d="M196 0H240.703L278.625 84.8223H280.375L318.297 0H363V137H327.85V52.8467H326.61L290.731 136.13H268.269L232.39 52.3784H231.15V137H196V0Z" fill="white"/>
</svg>
