<svg width="37" height="26" viewBox="0 0 37 26" fill="none" xmlns="http://www.w3.org/2000/svg">
<path d="M0 0.48268C0 0.216103 0.216103 0 0.48268 0H24.5208L21.5 7.5L4.20935 5.26982C1.80222 4.95935 0 2.90974 0 0.48268V0.48268Z" fill="#F54E51"/>
<path d="M2.65894 10.6295C2.65894 10.3065 2.92075 10.0447 3.24371 10.0447H16.5442V18.6122L7.11925 16.3102C4.50101 15.6708 2.65894 13.3247 2.65894 10.6295V10.6295Z" fill="#F54E51"/>
<path d="M21.5664 7.68115L19.5 8.5L15.9262 17.5197C14.6051 20.8539 11.3822 23.0436 7.79577 23.0436V23.0436C7.17583 23.0436 6.75271 22.4164 6.98486 21.8415L12.4509 8.30669C12.6035 7.92865 12.9704 7.68115 13.3781 7.68115L21.5664 7.68115Z" fill="#F54E51"/>
<path fill-rule="evenodd" clip-rule="evenodd" d="M24.0776 25.7025C31.1751 25.7025 36.9288 19.9488 36.9288 12.8512C36.9288 5.7537 31.1751 0 24.0776 0C16.98 0 11.2263 5.7537 11.2263 12.8512C11.2263 19.9488 16.98 25.7025 24.0776 25.7025ZM24.0777 18.6121C27.2593 18.6121 29.8386 16.0329 29.8386 12.8512C29.8386 9.66958 27.2593 7.09033 24.0777 7.09033C20.896 7.09033 18.3168 9.66958 18.3168 12.8512C18.3168 16.0329 20.896 18.6121 24.0777 18.6121Z" fill="#F54E51"/>
</svg>
