<svg width="266" height="44" viewBox="0 0 266 44" fill="none" xmlns="http://www.w3.org/2000/svg">
<path d="M62.4615 0.562877C62.5266 0.195005 62.656 1.54606e-05 62.8298 1.54606e-05C63.0031 1.54606e-05 63.1324 0.108652 63.4131 0.670793L69.3184 12.8763L75.203 0.518801C75.3759 0.173438 75.4837 1.54606e-05 75.6782 1.54606e-05C75.8735 1.54606e-05 76.0033 0.216075 76.0684 0.670793L78.0367 14.0459C78.2307 15.4085 78.4467 16.0362 79.0965 16.2312C79.7234 16.4257 80.1563 16.4478 80.4374 16.4478C80.6323 16.4478 80.7837 16.4689 80.7837 16.5991C80.7837 16.7721 80.5241 16.8372 80.2214 16.8372C79.6812 16.8372 76.6958 16.7721 75.83 16.7074C75.3324 16.6644 75.203 16.5991 75.203 16.4689C75.203 16.3614 75.2893 16.2958 75.4406 16.2312C75.5708 16.1881 75.636 15.9067 75.5493 15.3002L74.251 5.77859H74.1643L69.4486 15.6045C68.9506 16.6203 68.8433 16.8161 68.6479 16.8161C68.4544 16.8161 68.2375 16.3825 67.8908 15.7333C67.3717 14.7377 65.6634 11.4271 65.4038 10.8209C65.2089 10.3667 63.9111 7.63871 63.154 6.0164H63.0678L61.9433 14.6303C61.8993 15.0194 61.8782 15.3002 61.8782 15.6466C61.8782 16.0587 62.1588 16.2523 62.5266 16.3395C62.9169 16.4257 63.2195 16.4478 63.4356 16.4478C63.6089 16.4478 63.7598 16.4908 63.7598 16.5991C63.7598 16.7937 63.5644 16.8372 63.2407 16.8372C62.3322 16.8372 61.359 16.7721 60.9701 16.7721C60.5583 16.7721 59.5196 16.8372 58.8276 16.8372C58.6112 16.8372 58.4387 16.7937 58.4387 16.5991C58.4387 16.4908 58.5681 16.4478 58.785 16.4478C58.9583 16.4478 59.1092 16.4478 59.4334 16.3825C60.0383 16.2523 60.2121 15.4085 60.3203 14.6726L62.4615 0.562877" fill="#979797"/>
<path d="M93.2212 11.1889C93.3074 11.1889 93.3294 11.1454 93.3074 11.0801L91.5116 6.40633C91.4905 6.34105 91.4689 6.23277 91.4254 6.23277C91.3607 6.23277 91.3396 6.34105 91.3171 6.40633L89.4786 11.0591C89.4346 11.1454 89.4786 11.1889 89.5437 11.1889H93.2212ZM89.154 12.2056C89.0457 12.2056 89.0246 12.2272 88.9806 12.3355L87.9648 14.8034C87.7699 15.2575 87.6837 15.7117 87.6837 15.928C87.6837 16.2523 87.8557 16.4478 88.4404 16.4478H88.722C88.9595 16.4478 89.0026 16.534 89.0026 16.6422C89.0026 16.7937 88.8944 16.8372 88.6999 16.8372C88.0726 16.8372 87.1852 16.7721 86.5799 16.7721C86.3854 16.7721 85.3687 16.8372 84.374 16.8372C84.1356 16.8372 84.0273 16.7937 84.0273 16.6422C84.0273 16.534 84.0925 16.4478 84.2442 16.4478C84.4162 16.4478 84.6331 16.4257 84.8065 16.4257C85.6714 16.2958 85.9965 15.7333 86.3854 14.8034L91.3607 3.22397C91.5771 2.70469 91.7285 2.489 91.9229 2.489C92.2036 2.489 92.2907 2.66237 92.4852 3.07306C92.9392 4.09024 96.12 11.6215 97.3311 14.4139C98.0667 16.0798 98.6069 16.317 98.9532 16.3825C99.2338 16.4257 99.4507 16.4478 99.6667 16.4478C99.8401 16.4478 99.9263 16.5129 99.9263 16.6422C99.9263 16.7937 99.8185 16.8372 99.1045 16.8372C98.4336 16.8372 97.0491 16.8372 95.4491 16.7937C95.1028 16.7721 94.8864 16.7721 94.8864 16.6422C94.8864 16.534 94.9299 16.4689 95.1248 16.4478C95.2542 16.4257 95.3844 16.2523 95.2982 16.0362L93.8266 12.3355C93.7834 12.2272 93.7179 12.2056 93.6317 12.2056H89.154" fill="#979797"/>
<path d="M108.748 9.674C108.748 9.86845 108.79 9.93355 108.92 9.99865C109.331 10.1282 109.893 10.1717 110.37 10.1717C111.127 10.1717 111.386 10.1066 111.71 9.86845C112.295 9.45691 112.944 8.65678 112.944 7.14167C112.944 4.54446 111.17 3.87404 110.045 3.87404C109.57 3.87404 109.116 3.89529 108.92 3.93932C108.79 3.98232 108.748 4.04675 108.748 4.19802V9.674ZM106.324 8.2447C106.324 5.45372 106.324 4.93408 106.303 4.34947C106.26 3.72223 106.086 3.52724 105.481 3.3544C105.329 3.31123 105.006 3.28908 104.724 3.28908C104.529 3.28908 104.4 3.22398 104.4 3.09463C104.4 2.96479 104.552 2.92125 104.832 2.92125C105.828 2.92125 107.039 2.96479 107.428 2.96479C108.077 2.96479 109.808 2.92125 110.391 2.92125C111.603 2.92125 112.987 3.03074 114.004 3.70116C114.544 4.06867 115.345 4.99954 115.345 6.23277C115.345 7.59644 114.566 8.80806 112.706 10.3016C114.393 12.379 115.734 14.0459 116.881 15.1924C117.94 16.2523 118.611 16.3395 118.914 16.4038C119.108 16.4478 119.218 16.4478 119.369 16.4478C119.521 16.4478 119.606 16.555 119.606 16.6422C119.606 16.7937 119.476 16.8372 119.239 16.8372H117.422C116.361 16.8372 115.842 16.7298 115.345 16.4689C114.523 16.0587 113.809 15.1924 112.749 13.7642C111.991 12.7686 111.192 11.5343 110.953 11.2535C110.846 11.1454 110.737 11.1242 110.607 11.1242L108.899 11.0801C108.812 11.0801 108.748 11.1242 108.748 11.231V11.4922C108.748 13.2012 108.769 14.6303 108.855 15.4085C108.92 15.949 109.007 16.2958 109.591 16.3825C109.872 16.4257 110.283 16.4478 110.521 16.4478C110.673 16.4478 110.76 16.555 110.76 16.6422C110.76 16.7721 110.607 16.8372 110.37 16.8372C109.267 16.8372 107.687 16.7721 107.406 16.7721C107.039 16.7721 105.828 16.8372 105.069 16.8372C104.832 16.8372 104.703 16.7721 104.703 16.6422C104.703 16.555 104.767 16.4478 105.006 16.4478C105.286 16.4478 105.502 16.4257 105.676 16.3825C106.065 16.2958 106.173 15.949 106.238 15.4085C106.324 14.6303 106.324 13.1793 106.324 11.4922V8.2447" fill="#979797"/>
<path d="M125.491 8.2447C125.491 5.45372 125.491 4.93408 125.47 4.34947C125.427 3.72223 125.232 3.50617 124.821 3.37543C124.604 3.31123 124.366 3.28908 124.128 3.28908C123.934 3.28908 123.825 3.24644 123.825 3.07306C123.825 2.96479 123.977 2.92125 124.279 2.92125C124.994 2.92125 126.292 2.96479 126.832 2.96479C127.309 2.96479 128.541 2.92125 129.277 2.92125C129.514 2.92125 129.666 2.96479 129.666 3.07306C129.666 3.24644 129.559 3.28908 129.363 3.28908C129.168 3.28908 129.017 3.31123 128.8 3.3544C128.283 3.44107 128.131 3.70116 128.087 4.34947C128.044 4.93408 128.044 5.45372 128.044 8.2447V11.4922C128.044 13.2663 128.044 14.7377 128.131 15.5173C128.195 16.0147 128.325 16.2958 128.888 16.3825C129.147 16.4257 129.58 16.4478 129.861 16.4478C130.078 16.4478 130.164 16.555 130.164 16.6422C130.164 16.7721 130.013 16.8372 129.797 16.8372C128.541 16.8372 127.244 16.7721 126.725 16.7721C126.292 16.7721 124.994 16.8372 124.237 16.8372C123.999 16.8372 123.87 16.7721 123.87 16.6422C123.87 16.555 123.934 16.4478 124.172 16.4478C124.453 16.4478 124.669 16.4257 124.843 16.3825C125.232 16.2958 125.339 16.0362 125.404 15.4948C125.491 14.7377 125.491 13.2663 125.491 11.4922V8.2447" fill="#979797"/>
<path d="M150.022 15.6044C150.022 16.1008 150.022 16.1223 149.784 16.2522C148.507 16.8809 146.625 17.0744 145.132 17.0744C140.46 17.0744 136.329 14.9542 136.329 9.86837C136.329 6.92611 137.908 4.86871 139.66 3.85289C141.477 2.79128 143.186 2.66229 144.787 2.66229C146.106 2.66229 147.772 2.87889 148.161 2.9647C148.55 3.03066 149.221 3.13772 149.675 3.15969C149.891 3.1818 149.935 3.24636 149.935 3.37535C149.935 3.59226 149.805 4.09015 149.805 6.40625C149.805 6.68705 149.697 6.81639 149.546 6.81639C149.416 6.81639 149.372 6.73005 149.351 6.57913C149.307 6.16759 149.2 5.58352 148.702 5.06456C148.14 4.47959 146.713 3.65705 144.57 3.65705C143.532 3.65705 142.213 3.67812 140.893 4.73936C139.833 5.60473 139.141 6.96821 139.141 9.2183C139.141 13.1792 141.693 16.0586 145.76 16.0586C146.257 16.0586 146.647 16.0586 147.102 15.8628C147.382 15.7333 147.469 15.5388 147.469 15.2139V13.526C147.469 12.6176 147.469 11.9247 147.447 11.3617C147.425 10.7341 147.231 10.5396 146.625 10.3666C146.473 10.3225 146.149 10.3015 145.891 10.3015C145.716 10.3015 145.586 10.2152 145.586 10.1065C145.586 9.95472 145.738 9.93347 145.998 9.93347C146.993 9.93347 148.355 9.97665 148.918 9.97665C149.524 9.97665 150.519 9.93347 151.146 9.93347C151.405 9.93347 151.535 9.95472 151.535 10.1065C151.535 10.2152 151.428 10.3015 151.298 10.3015C151.146 10.3015 150.995 10.3225 150.779 10.3666C150.26 10.4533 150.065 10.7122 150.043 11.3617C150.022 11.9247 150.022 12.6597 150.022 13.5691V15.6044" fill="#979797"/>
<path d="M160.852 14.3267C160.896 15.7558 161.134 16.1881 161.501 16.3171C161.825 16.4257 162.193 16.4478 162.496 16.4478C162.712 16.4478 162.821 16.534 162.821 16.6423C162.821 16.7937 162.647 16.8373 162.388 16.8373C161.155 16.8373 160.268 16.7722 159.922 16.7722C159.749 16.7722 158.841 16.8373 157.867 16.8373C157.608 16.8373 157.434 16.8162 157.434 16.6423C157.434 16.534 157.564 16.4478 157.738 16.4478C157.997 16.4478 158.343 16.4257 158.603 16.3615C159.101 16.2313 159.165 15.7334 159.186 14.1321L159.359 3.22401C159.359 2.85704 159.489 2.59731 159.684 2.59731C159.922 2.59731 160.182 2.87901 160.507 3.20294C160.744 3.4411 163.599 6.36234 166.368 9.06751C167.666 10.3451 170.197 12.9415 170.478 13.2013H170.565L170.37 5.02078C170.348 3.89533 170.176 3.57099 169.722 3.39744C169.44 3.28911 168.986 3.28911 168.726 3.28911C168.488 3.28911 168.423 3.20294 168.423 3.09466C168.423 2.94321 168.618 2.92129 168.899 2.92129C169.894 2.92129 170.911 2.96482 171.322 2.96482C171.538 2.96482 172.252 2.92129 173.182 2.92129C173.442 2.92129 173.615 2.94321 173.615 3.09466C173.615 3.20294 173.505 3.28911 173.29 3.28911C173.096 3.28911 172.944 3.28911 172.707 3.35444C172.187 3.50621 172.036 3.83054 172.014 4.86883L171.798 16.4689C171.798 16.881 171.646 17.0535 171.495 17.0535C171.17 17.0535 170.911 16.8589 170.716 16.6644C169.526 15.56 167.147 13.2885 165.157 11.3618C163.08 9.37113 161.068 7.1417 160.701 6.81651H160.636L160.852 14.3267" fill="#979797"/>
<path d="M184.234 12.0541C184.234 11.059 184.061 10.6694 183.801 10.1282C183.672 9.84738 181.076 5.8007 180.405 4.82665C179.93 4.15588 179.54 3.72223 179.173 3.52724C178.935 3.3974 178.61 3.28908 178.372 3.28908C178.22 3.28908 178.091 3.22398 178.091 3.09463C178.091 2.96479 178.22 2.92125 178.458 2.92125C178.783 2.92125 180.211 2.96479 180.838 2.96479C181.249 2.96479 182.135 2.92125 183.002 2.92125C183.174 2.92125 183.282 2.96479 183.282 3.09463C183.282 3.24644 183.153 3.24644 182.85 3.33315C182.699 3.37543 182.589 3.46268 182.589 3.61449C182.589 3.76595 182.677 3.98232 182.828 4.24205C183.174 4.80509 185.662 9.11132 185.987 9.63083C186.225 9.19714 188.539 5.25927 188.82 4.69627C189.014 4.28523 189.1 3.96039 189.1 3.72223C189.1 3.54971 189.014 3.37543 188.69 3.31123C188.517 3.26805 188.344 3.24644 188.344 3.09463C188.344 2.96479 188.452 2.92125 188.668 2.92125C189.296 2.92125 189.966 2.96479 190.529 2.96479C190.94 2.96479 192.195 2.92125 192.563 2.92125C192.778 2.92125 192.908 2.96479 192.908 3.07306C192.908 3.20291 192.756 3.28908 192.54 3.28908C192.346 3.28908 191.999 3.37543 191.718 3.50617C191.308 3.70116 191.135 3.87404 190.723 4.37104C190.097 5.10746 187.371 9.47937 187.025 10.2575C186.744 10.9288 186.787 11.4922 186.787 12.0982V13.5692C186.787 13.8725 186.787 14.6303 186.83 15.4085C186.873 15.949 187.046 16.2958 187.609 16.3825C187.89 16.4257 188.302 16.4478 188.56 16.4478C188.777 16.4478 188.885 16.555 188.885 16.6422C188.885 16.7721 188.734 16.8372 188.474 16.8372C187.284 16.8372 186.008 16.7721 185.489 16.7721C185.013 16.7721 183.737 16.8372 183.023 16.8372C182.764 16.8372 182.613 16.7937 182.613 16.6422C182.613 16.555 182.699 16.4478 182.915 16.4478C183.174 16.4478 183.411 16.4257 183.586 16.3825C183.975 16.2958 184.126 15.949 184.169 15.4085C184.234 14.6303 184.234 13.8725 184.234 13.5692V12.0541" fill="#979797"/>
<path d="M42.6438 33.4094C42.6438 28.5617 39.8537 25.5538 36.3065 25.5538C33.8182 25.5538 30.9845 26.9394 30.9845 32.3276C30.9845 36.8294 33.4724 40.3994 37.6259 40.3994C39.1393 40.3994 42.6438 39.6644 42.6438 33.4094V33.4094ZM28 32.9978C28 29.2981 30.4439 24.515 36.9339 24.515C42.32 24.515 45.6724 27.6533 45.6724 32.6084C45.6724 37.5644 42.2109 41.4826 36.717 41.4826C30.5085 41.4826 28 36.8294 28 32.9978Z" fill="#979797"/>
<path d="M53.4366 32.5873C53.4366 29.7954 53.4366 29.2768 53.4142 28.6918C53.371 28.0637 53.1986 27.8693 52.5924 27.6959C52.441 27.6532 52.1163 27.632 51.8357 27.632C51.6408 27.632 51.511 27.5669 51.511 27.4361C51.511 27.3063 51.6619 27.2641 51.9439 27.2641C52.9381 27.2641 54.1502 27.3063 54.6913 27.3063C55.4696 27.3063 56.9834 27.2641 57.8492 27.2641C60.2288 27.2641 61.0933 28.0423 61.396 28.3019C61.8082 28.6918 62.348 29.5146 62.348 30.5093C62.348 33.1069 60.2715 34.9679 57.5676 34.9679C57.4814 34.9679 57.0925 34.9679 57.0049 34.9454C56.8967 34.9454 56.7678 34.8812 56.7678 34.7519C56.7678 34.6004 56.9834 34.5132 57.3952 34.5132C58.4546 34.5132 59.9473 33.4093 59.9473 31.5272C59.9473 30.9207 59.8822 29.7096 58.8223 28.7998C58.1299 28.1936 57.3512 28.1074 56.9192 28.1074C56.6385 28.1074 56.2703 28.1285 56.0969 28.1936C55.9887 28.2376 55.946 28.3456 55.946 28.5405V35.8333C55.946 37.5222 55.946 38.9714 56.0318 39.7726C56.0969 40.2919 56.2051 40.6378 56.7678 40.7245C57.0485 40.7672 57.4603 40.7896 57.741 40.7896C57.9565 40.7896 58.0436 40.8979 58.0436 40.9843C58.0436 41.1141 57.8923 41.1787 57.6974 41.1787C56.4216 41.1787 55.0807 41.1141 54.5826 41.1141C54.1502 41.1141 52.9381 41.1787 52.181 41.1787C51.9439 41.1787 51.8132 41.1141 51.8132 40.9843C51.8132 40.8979 51.8788 40.7896 52.1163 40.7896C52.3979 40.7896 52.6148 40.7672 52.7868 40.7245C53.1766 40.6378 53.2848 40.2919 53.3499 39.7505C53.4366 38.9714 53.4366 37.5222 53.4366 35.8333V32.5873" fill="#979797"/>
<path d="M70.6504 32.5874C70.6504 29.7956 70.6504 29.2769 70.6293 28.692C70.5857 28.0639 70.4132 27.8694 69.8074 27.6961C69.6561 27.6534 69.331 27.6322 69.0503 27.6322C68.8554 27.6322 68.7261 27.5671 68.7261 27.4363C68.7261 27.3064 68.877 27.2643 69.1576 27.2643C70.1537 27.2643 71.3653 27.3064 71.906 27.3064C72.5113 27.3064 76.729 27.328 77.0968 27.3064C77.4435 27.2854 77.7457 27.2203 77.8975 27.199C78.0062 27.1766 78.1139 27.1123 78.2006 27.1123C78.3084 27.1123 78.3304 27.199 78.3304 27.2854C78.3304 27.4153 78.2217 27.6322 78.1795 28.4754C78.1571 28.6704 78.1139 29.4702 78.0699 29.6873C78.0488 29.7734 78.0062 29.99 77.8544 29.99C77.7246 29.99 77.7021 29.9042 77.7021 29.7524C77.7021 29.6222 77.681 29.2982 77.5737 29.0811C77.4215 28.7577 77.2701 28.4967 76.3185 28.4103C75.9934 28.3671 73.722 28.3245 73.3331 28.3245C73.2469 28.3245 73.2029 28.3893 73.2029 28.4967V33.042C73.2029 33.1499 73.2249 33.237 73.3331 33.237C73.766 33.237 76.2323 33.237 76.6643 33.1934C77.1183 33.1499 77.399 33.1071 77.5737 32.9117C77.7246 32.7819 77.7893 32.6741 77.8764 32.6741C77.9626 32.6741 78.0277 32.7603 78.0277 32.8686C78.0277 32.9763 77.9837 33.2796 77.8764 34.2106C77.8324 34.5785 77.7893 35.3136 77.7893 35.4444C77.7893 35.5953 77.7668 35.8549 77.5948 35.8549C77.4646 35.8549 77.4215 35.7912 77.4215 35.704C77.399 35.5095 77.399 35.2714 77.3568 35.0328C77.2477 34.6648 77.0101 34.384 76.2965 34.3189C75.9508 34.2752 73.7871 34.2326 73.312 34.2326C73.2249 34.2326 73.2029 34.3189 73.2029 34.4272V35.8986C73.2029 36.5262 73.1818 38.0834 73.2029 38.6252C73.2469 39.88 73.8307 40.1622 75.7779 40.1622C76.275 40.1622 77.0757 40.1412 77.5737 39.9241C78.0488 39.7071 78.2653 39.3184 78.3951 38.5615C78.4377 38.3656 78.4817 38.2793 78.6111 38.2793C78.7624 38.2793 78.7844 38.5169 78.7844 38.7124C78.7844 39.1231 78.6335 40.3783 78.524 40.7463C78.3951 41.2217 78.2217 41.2217 77.5086 41.2217C76.081 41.2217 74.9332 41.2005 74.004 41.1564C73.0735 41.1354 72.36 41.1143 71.7977 41.1143C71.5808 41.1143 71.1699 41.1354 70.7155 41.1354C70.2615 41.1564 69.7859 41.1789 69.3956 41.1789C69.1576 41.1789 69.0287 41.1143 69.0287 40.9844C69.0287 40.8981 69.0925 40.7898 69.331 40.7898C69.6125 40.7898 69.8286 40.7673 70.0019 40.7247C70.3921 40.638 70.4995 40.2921 70.5641 39.7507C70.6504 38.9716 70.6504 37.5223 70.6504 35.8335V32.5874" fill="#979797"/>
<path d="M89.43 34.0155C89.43 34.2105 89.474 34.275 89.6033 34.3398C90.0142 34.47 90.5764 34.5132 91.0529 34.5132C91.8096 34.5132 92.0692 34.4489 92.3943 34.2105C92.9785 33.7989 93.6265 32.9977 93.6265 31.4837C93.6265 28.8865 91.8536 28.2157 90.7282 28.2157C90.2518 28.2157 89.7977 28.2376 89.6033 28.2799C89.474 28.3243 89.43 28.3891 89.43 28.5405V34.0155ZM87.0076 32.5873C87.0076 29.7954 87.0077 29.2768 86.9856 28.6918C86.943 28.0637 86.7701 27.8693 86.1638 27.6959C86.0125 27.6532 85.6874 27.632 85.4067 27.632C85.2123 27.632 85.082 27.5669 85.082 27.4361C85.082 27.3063 85.2334 27.2641 85.5149 27.2641C86.5101 27.2641 87.7212 27.3063 88.1106 27.3063C88.759 27.3063 90.4902 27.2641 91.074 27.2641C92.2861 27.2641 93.6701 27.371 94.6868 28.0423C95.2279 28.4101 96.0277 29.3412 96.0277 30.5744C96.0277 31.9379 95.249 33.1497 93.3885 34.6427C95.0766 36.7207 96.4166 38.3865 97.564 39.5348C98.6234 40.5952 99.2938 40.681 99.5969 40.7461C99.7918 40.7896 99.8996 40.7896 100.051 40.7896C100.202 40.7896 100.289 40.8979 100.289 40.9843C100.289 41.1352 100.16 41.1787 99.9216 41.1787H98.1042C97.0444 41.1787 96.5253 41.0704 96.0277 40.8112C95.2059 40.3993 94.4923 39.5348 93.4325 38.1057C92.6749 37.1096 91.8747 35.8772 91.6371 35.5952C91.528 35.4869 91.4207 35.4653 91.2905 35.4653L89.5808 35.423C89.4951 35.423 89.43 35.4653 89.43 35.5739V35.8333C89.43 37.5432 89.452 38.9714 89.5386 39.7505C89.6033 40.2919 89.6904 40.6378 90.2742 40.7245C90.5549 40.7672 90.9667 40.7896 91.2042 40.7896C91.3556 40.7896 91.4418 40.8979 91.4418 40.9843C91.4418 41.1141 91.2905 41.1787 91.0529 41.1787C89.9491 41.1787 88.3701 41.1141 88.0886 41.1141C87.7212 41.1141 86.5101 41.1787 85.7529 41.1787C85.5149 41.1787 85.3852 41.1141 85.3852 40.9843C85.3852 40.8979 85.4503 40.7896 85.6874 40.7896C85.9689 40.7896 86.1858 40.7672 86.3583 40.7245C86.7485 40.6378 86.8563 40.2919 86.9219 39.7505C87.0077 38.9714 87.0076 37.5222 87.0076 35.8333V32.5873" fill="#979797"/>
<path d="M111.055 35.5304C111.141 35.5304 111.163 35.4869 111.141 35.423L109.346 30.7473C109.324 30.6827 109.302 30.5744 109.26 30.5744C109.195 30.5744 109.172 30.6827 109.151 30.7473L107.313 35.4005C107.27 35.4869 107.313 35.5304 107.377 35.5304H111.055ZM106.988 36.5476C106.881 36.5476 106.858 36.5687 106.816 36.6775L105.798 39.1448C105.604 39.599 105.517 40.0534 105.517 40.27C105.517 40.5952 105.691 40.7896 106.274 40.7896H106.555C106.794 40.7896 106.837 40.876 106.837 40.9843C106.837 41.1352 106.729 41.1787 106.533 41.1787C105.907 41.1787 105.02 41.1141 104.414 41.1141C104.219 41.1141 103.202 41.1787 102.207 41.1787C101.97 41.1787 101.861 41.1352 101.861 40.9843C101.861 40.876 101.926 40.7896 102.078 40.7896C102.252 40.7896 102.468 40.7672 102.64 40.7672C103.505 40.6378 103.831 40.0748 104.219 39.1448L109.195 27.5669C109.411 27.047 109.562 26.831 109.757 26.831C110.038 26.831 110.125 27.003 110.32 27.4151C110.774 28.4318 113.953 35.9635 115.164 38.7545C115.9 40.4212 116.441 40.6599 116.787 40.7245C117.069 40.7672 117.285 40.7896 117.501 40.7896C117.675 40.7896 117.76 40.8535 117.76 40.9843C117.76 41.1352 117.652 41.1787 116.939 41.1787C116.268 41.1787 114.883 41.1787 113.283 41.1352C112.936 41.1141 112.721 41.1141 112.721 40.9843C112.721 40.876 112.763 40.8112 112.959 40.7896C113.089 40.7672 113.217 40.5952 113.131 40.3781L111.661 36.6775C111.617 36.5687 111.552 36.5476 111.466 36.5476H106.988" fill="#979797"/>
<path d="M141.71 31.6999C141.775 31.6999 141.84 31.6571 141.84 31.5485V31.0942C141.84 27.8045 141.84 27.1988 141.797 26.5065C141.754 25.7706 141.581 25.4233 140.867 25.2724C140.694 25.2288 140.326 25.2073 140.023 25.2073C139.786 25.2073 139.656 25.165 139.656 25.0132C139.656 24.8617 139.807 24.8182 140.11 24.8182C141.278 24.8182 142.641 24.8829 143.225 24.8829C143.743 24.8829 145.107 24.8182 145.95 24.8182C146.253 24.8182 146.404 24.8617 146.404 25.0132C146.404 25.165 146.275 25.2073 146.015 25.2073C145.842 25.2073 145.648 25.2288 145.388 25.2724C144.804 25.3806 144.631 25.7482 144.588 26.5065C144.544 27.1988 144.544 27.8045 144.544 31.0942V34.9032C144.544 36.894 144.544 38.6034 144.653 39.5348C144.717 40.141 144.847 40.6162 145.496 40.7021C145.798 40.7461 146.275 40.7896 146.6 40.7896C146.837 40.7896 146.946 40.8535 146.946 40.9632C146.946 41.1141 146.772 41.1787 146.512 41.1787C145.107 41.1787 143.743 41.1141 143.138 41.1141C142.641 41.1141 141.278 41.1787 140.434 41.1787C140.131 41.1787 139.979 41.1141 139.979 40.9632C139.979 40.8535 140.066 40.7896 140.326 40.7896C140.65 40.7896 140.911 40.7461 141.104 40.7021C141.537 40.6162 141.645 40.141 141.732 39.512C141.84 38.6034 141.84 36.894 141.84 34.9032V32.9977C141.84 32.9115 141.775 32.8684 141.71 32.8684H133.448C133.382 32.8684 133.317 32.8905 133.317 32.9977V34.9032C133.317 36.894 133.317 38.6034 133.426 39.5348C133.49 40.141 133.62 40.6162 134.269 40.7021C134.572 40.7461 135.048 40.7896 135.373 40.7896C135.61 40.7896 135.718 40.8535 135.718 40.9632C135.718 41.1141 135.546 41.1787 135.286 41.1787C133.88 41.1787 132.517 41.1141 131.911 41.1141C131.415 41.1141 130.052 41.1787 129.186 41.1787C128.904 41.1787 128.753 41.1141 128.753 40.9632C128.753 40.8535 128.84 40.7896 129.1 40.7896C129.423 40.7896 129.684 40.7461 129.878 40.7021C130.311 40.6162 130.419 40.141 130.506 39.512C130.613 38.6034 130.613 36.894 130.613 34.9032V31.0942C130.613 27.8045 130.613 27.1988 130.57 26.5065C130.527 25.7706 130.355 25.4233 129.64 25.2724C129.467 25.2288 129.1 25.2073 128.797 25.2073C128.559 25.2073 128.429 25.165 128.429 25.0132C128.429 24.8617 128.58 24.8182 128.883 24.8182C130.052 24.8182 131.415 24.8829 131.998 24.8829C132.517 24.8829 133.88 24.8182 134.723 24.8182C135.026 24.8182 135.177 24.8617 135.177 25.0132C135.177 25.165 135.048 25.2073 134.788 25.2073C134.616 25.2073 134.421 25.2288 134.161 25.2724C133.577 25.3806 133.404 25.7482 133.361 26.5065C133.317 27.1988 133.317 27.8045 133.317 31.0942V31.5485C133.317 31.6571 133.382 31.6999 133.448 31.6999H141.71" fill="#979797"/>
<path d="M166.177 34.5559C166.177 30.4882 163.732 27.9771 160.66 27.9771C158.541 27.9771 156.054 29.1022 156.054 33.6475C156.054 37.4345 158.216 40.4213 161.807 40.4213C163.148 40.4213 166.177 39.7937 166.177 34.5559V34.5559ZM153.241 34.2106C153.241 31.0722 155.447 27.0031 161.223 27.0031C166.025 27.0031 169.01 29.6659 169.01 33.8857C169.01 38.1058 165.939 41.4175 161.028 41.4175C155.491 41.4175 153.241 37.4782 153.241 34.2106Z" fill="#979797"/>
<path d="M176.706 32.5873C176.706 29.7955 176.727 29.2769 176.682 28.6919C176.639 28.0424 176.466 27.8693 175.86 27.696C175.709 27.6533 175.385 27.6321 175.125 27.6321C174.91 27.6321 174.801 27.567 174.801 27.4362C174.801 27.3064 174.931 27.2642 175.212 27.2642C176.228 27.2642 177.504 27.3063 178.068 27.3063C178.543 27.3063 179.818 27.2642 180.512 27.2642C180.793 27.2642 180.922 27.3064 180.922 27.4362C180.922 27.567 180.814 27.6321 180.62 27.6321C180.403 27.6321 180.296 27.6533 180.058 27.696C179.56 27.7835 179.408 28.0424 179.364 28.6919C179.322 29.2769 179.322 29.7955 179.322 32.5873V35.1621C179.322 37.846 179.841 38.8848 180.771 39.6207C181.614 40.292 182.524 40.3571 183.172 40.3571C183.994 40.3571 184.967 40.1186 185.724 39.3822C186.784 38.3866 186.828 36.7858 186.828 34.9033V32.5873C186.828 29.7955 186.807 29.2769 186.784 28.6919C186.742 28.0638 186.591 27.8693 185.985 27.696C185.834 27.6533 185.508 27.6321 185.292 27.6321C185.076 27.6321 184.967 27.567 184.967 27.4362C184.967 27.3064 185.098 27.2642 185.356 27.2642C186.33 27.2642 187.606 27.3063 187.628 27.3063C187.844 27.3063 189.121 27.2642 189.856 27.2642C190.116 27.2642 190.245 27.3064 190.245 27.4362C190.245 27.567 190.137 27.6321 189.921 27.6321C189.704 27.6321 189.597 27.6533 189.359 27.696C188.84 27.7835 188.71 28.0424 188.666 28.6919C188.645 29.2769 188.623 29.7955 188.623 32.5873V34.5559C188.623 36.6125 188.407 38.7771 186.807 40.0961C185.466 41.2216 184.015 41.4175 182.783 41.4175C181.788 41.4175 179.818 41.3734 178.435 40.1621C177.462 39.3183 176.706 37.9543 176.706 35.2923V32.5873" fill="#979797"/>
<path d="M197.252 40.9408C196.949 40.8113 196.884 40.7246 196.884 40.3131C196.884 39.3183 196.97 38.1709 196.992 37.8676C196.992 37.5868 197.08 37.3918 197.231 37.3918C197.403 37.3918 197.425 37.5644 197.425 37.6942C197.425 37.9324 197.49 38.3218 197.599 38.6472C198.009 40.0103 199.436 40.4645 200.626 40.4645C202.27 40.4645 203.265 39.4257 203.265 38.1274C203.265 37.3262 203.071 36.5261 201.383 35.5305L200.281 34.8813C198.031 33.5613 197.295 32.3276 197.295 30.7053C197.295 28.4543 199.459 27.0031 202.098 27.0031C203.33 27.0031 204.303 27.1765 204.802 27.3064C204.974 27.35 205.06 27.4152 205.06 27.545C205.06 27.7835 204.996 28.302 204.996 29.7523C204.996 30.1414 204.909 30.3373 204.758 30.3373C204.629 30.3373 204.564 30.2275 204.564 30.012C204.564 29.8385 204.477 29.2769 204.066 28.7999C203.784 28.4543 203.179 27.935 201.947 27.935C200.584 27.935 199.35 28.6479 199.35 29.9041C199.35 30.7263 199.653 31.3755 201.362 32.3276L202.14 32.7602C204.65 34.1458 205.428 35.5521 205.428 37.219C205.428 38.5824 204.909 39.686 203.526 40.66C202.617 41.3083 201.362 41.4175 200.344 41.4175C199.242 41.4175 198.074 41.3083 197.252 40.9408" fill="#979797"/>
<path d="M213.863 32.5874C213.863 29.7956 213.863 29.2769 213.842 28.692C213.799 28.0639 213.626 27.8694 213.02 27.6961C212.869 27.6534 212.544 27.6322 212.263 27.6322C212.069 27.6322 211.939 27.5671 211.939 27.4363C211.939 27.3064 212.09 27.2643 212.371 27.2643C213.367 27.2643 214.578 27.3064 215.118 27.3064C215.723 27.3064 219.942 27.328 220.31 27.3064C220.656 27.2854 220.959 27.2203 221.11 27.199C221.22 27.1766 221.327 27.1123 221.413 27.1123C221.522 27.1123 221.543 27.199 221.543 27.2854C221.543 27.4153 221.435 27.6322 221.392 28.4754C221.37 28.6704 221.327 29.4702 221.283 29.6873C221.262 29.7734 221.22 29.99 221.068 29.99C220.938 29.99 220.916 29.9042 220.916 29.7524C220.916 29.6222 220.894 29.2982 220.786 29.0811C220.635 28.7577 220.484 28.4967 219.531 28.4103C219.207 28.3671 216.936 28.3245 216.546 28.3245C216.459 28.3245 216.417 28.3893 216.417 28.4967V33.042C216.417 33.1499 216.438 33.237 216.546 33.237C216.979 33.237 219.445 33.237 219.878 33.1934C220.332 33.1499 220.612 33.1071 220.786 32.9117C220.938 32.7819 221.003 32.6741 221.089 32.6741C221.175 32.6741 221.241 32.7603 221.241 32.8686C221.241 32.9763 221.196 33.2796 221.089 34.2106C221.045 34.5785 221.003 35.3136 221.003 35.4444C221.003 35.5953 220.981 35.8549 220.807 35.8549C220.678 35.8549 220.635 35.7912 220.635 35.704C220.612 35.5095 220.612 35.2714 220.57 35.0328C220.462 34.6648 220.223 34.384 219.51 34.3189C219.163 34.2752 217 34.2326 216.525 34.2326C216.438 34.2326 216.417 34.3189 216.417 34.4272V35.8986C216.417 36.5262 216.394 38.0834 216.417 38.6252C216.459 39.88 217.044 40.1622 218.991 40.1622C219.488 40.1622 220.288 40.1412 220.786 39.9241C221.262 39.7071 221.478 39.3184 221.608 38.5615C221.651 38.3656 221.695 38.2793 221.824 38.2793C221.976 38.2793 221.997 38.5169 221.997 38.7124C221.997 39.1231 221.846 40.3783 221.737 40.7463C221.608 41.2217 221.435 41.2217 220.721 41.2217C219.293 41.2217 218.147 41.2005 217.216 41.1564C216.287 41.1354 215.572 41.1143 215.011 41.1143C214.794 41.1143 214.382 41.1354 213.928 41.1354C213.474 41.1564 212.999 41.1789 212.609 41.1789C212.371 41.1789 212.242 41.1143 212.242 40.9844C212.242 40.8981 212.306 40.7898 212.544 40.7898C212.826 40.7898 213.042 40.7673 213.215 40.7247C213.604 40.638 213.711 40.2921 213.777 39.7507C213.863 38.9716 213.863 37.5223 213.863 35.8335V32.5874" fill="#979797"/>
</svg>
