<svg width="37" height="26" viewBox="0 0 37 26" fill="none" xmlns="http://www.w3.org/2000/svg">
<path d="M0 0.499962C0 0.22384 0.223841 0 0.499962 0H24.5208V8.86293L4.16806 5.42994C1.76173 5.02406 0 2.94028 0 0.499962V0.499962Z" fill="#F54E51"/>
<path d="M2.65894 10.6295C2.65894 10.3065 2.92075 10.0447 3.24371 10.0447H16.5442V18.6122L7.11925 16.3102C4.50101 15.6708 2.65894 13.3247 2.65894 10.6295V10.6295Z" fill="#F54E51"/>
<path d="M21.5664 7.68121L16.3838 17.8509C14.7599 21.0374 11.4858 23.0436 7.90932 23.0436V23.0436C7.23508 23.0436 6.7749 22.3615 7.02738 21.7363L12.4509 8.30675C12.6035 7.92872 12.9704 7.68121 13.3781 7.68121L21.5664 7.68121Z" fill="#F54E51"/>
<circle cx="24.0776" cy="12.8512" r="12.8512" fill="#F54E51"/>
<circle cx="24.0776" cy="12.8512" r="5.7609" fill="black"/>
</svg>
