<svg width="52" height="36" viewBox="0 0 52 36" fill="none" xmlns="http://www.w3.org/2000/svg">
<path d="M0 0.700251C0 0.313513 0.313513 0 0.700251 0H34.344V12.4135L5.83782 7.60522C2.4675 7.03673 0 4.11818 0 0.700251V0.700251Z" fill="#F54E51"/>
<path d="M3.72046 14.8881C3.72046 14.4358 4.08716 14.0691 4.5395 14.0691H23.1683V26.0688L9.9676 22.8447C6.30048 21.9491 3.72046 18.6631 3.72046 14.8881V14.8881Z" fill="#F54E51"/>
<path d="M30.2117 10.759L22.0286 26.8163C20.3213 30.1665 16.879 32.2757 13.1189 32.2757L10.5911 32.2757C9.88217 32.2757 9.39836 31.5586 9.66381 30.9013L17.5456 11.3846C17.6982 11.0065 18.0651 10.759 18.4728 10.759L30.2117 10.759Z" fill="#F54E51"/>
<circle cx="33.7237" cy="17.9996" r="17.9996" fill="#F54E51"/>
<circle cx="33.7284" cy="17.9989" r="8.06877" fill="black"/>
</svg>
