<svg width="124" height="24" viewBox="0 0 124 24" fill="none" xmlns="http://www.w3.org/2000/svg">
<path d="M12.9614 23.9995C11.2115 23.9995 9.59287 23.6927 8.10547 23.079C6.63994 22.4653 5.3494 21.6105 4.23385 20.5146C3.1183 19.4187 2.25429 18.1475 1.64183 16.7009C1.02937 15.2324 0.723145 13.6543 0.723145 11.9666C0.723145 10.257 1.02937 8.67896 1.64183 7.23239C2.25429 5.78581 3.10736 4.52554 4.20104 3.45157C5.29472 2.35568 6.57432 1.51184 8.03985 0.92006C9.52725 0.306361 11.1459 -0.000488281 12.8958 -0.000488281C14.6238 -0.000488281 16.2206 0.306361 17.6861 0.92006C19.1735 1.51184 20.464 2.35568 21.5577 3.45157C22.6733 4.52554 23.5373 5.79677 24.1497 7.26527C24.7622 8.71184 25.0684 10.2899 25.0684 11.9995C25.0684 13.6872 24.7622 15.2653 24.1497 16.7338C23.5373 18.1803 22.6842 19.4516 21.5905 20.5475C20.4968 21.6214 19.2063 22.4653 17.7189 23.079C16.2534 23.6927 14.6675 23.9995 12.9614 23.9995ZM12.8958 19.2981C14.2738 19.2981 15.4769 18.9913 16.5049 18.3776C17.5548 17.7639 18.3642 16.9091 18.9329 15.8132C19.5016 14.6954 19.7859 13.4132 19.7859 11.9666C19.7859 10.8707 19.6219 9.88444 19.2938 9.00773C18.9657 8.1091 18.4954 7.34198 17.8829 6.70636C17.2705 6.04883 16.5377 5.55568 15.6847 5.22691C14.8535 4.87622 13.9238 4.70088 12.8958 4.70088C11.5177 4.70088 10.3038 5.00773 9.25383 5.62143C8.22577 6.21321 7.42739 7.05705 6.85867 8.15294C6.28996 9.22691 6.00561 10.4981 6.00561 11.9666C6.00561 13.0625 6.16966 14.0598 6.49776 14.9584C6.82586 15.857 7.28521 16.6351 7.87579 17.2927C8.48825 17.9283 9.22102 18.4214 10.0741 18.7721C10.9272 19.1228 11.8677 19.2981 12.8958 19.2981Z" fill="white"/>
<path d="M28.3384 23.605V0.394033H33.4896V23.605H28.3384ZM32.2757 14.4981V10.0598H43.8577V14.4981H32.2757ZM32.2757 4.83239V0.394033H44.3827V4.83239H32.2757Z" fill="white"/>
<path d="M54.5938 23.9666C52.8658 23.9666 51.3238 23.6159 49.9676 22.9146C48.6333 22.1913 47.5834 21.194 46.8178 19.9228C46.0522 18.6516 45.6694 17.2159 45.6694 15.6159C45.6694 14.0159 46.0413 12.5913 46.785 11.342C47.5506 10.0707 48.5786 9.07348 49.8692 8.3502C51.1597 7.62691 52.6143 7.26527 54.2329 7.26527C55.8078 7.26527 57.1968 7.60499 58.3998 8.28444C59.6029 8.9639 60.5435 9.90636 61.2215 11.1118C61.9215 12.3173 62.2715 13.6981 62.2715 15.2543C62.2715 15.5392 62.2496 15.8461 62.2058 16.1749C62.184 16.4817 62.1293 16.8433 62.0418 17.2598L48.2943 17.2927V13.8406L59.9091 13.8077L57.7436 15.2543C57.7218 14.3338 57.5796 13.5776 57.3171 12.9858C57.0546 12.3721 56.6609 11.9118 56.1359 11.605C55.6328 11.2762 55.0094 11.1118 54.2657 11.1118C53.4783 11.1118 52.7893 11.2981 52.1987 11.6707C51.63 12.0214 51.1816 12.5255 50.8535 13.1831C50.5472 13.8406 50.3941 14.6406 50.3941 15.5831C50.3941 16.5255 50.5582 17.3365 50.8863 18.016C51.2363 18.6735 51.7175 19.1886 52.3299 19.5612C52.9643 19.9118 53.708 20.0872 54.561 20.0872C55.3485 20.0872 56.0594 19.9557 56.6937 19.6927C57.328 19.4077 57.8858 18.9913 58.367 18.4433L61.1231 21.205C60.3357 22.1255 59.3842 22.8159 58.2686 23.2762C57.1531 23.7365 55.9281 23.9666 54.5938 23.9666Z" fill="white"/>
<path d="M64.6946 23.605V7.62691H69.7145V23.605H64.6946ZM69.7145 14.8269L67.6147 13.1831C68.0303 11.3201 68.7302 9.87349 69.7145 8.84335C70.6988 7.81321 72.0659 7.29814 73.8158 7.29814C74.5814 7.29814 75.2485 7.41869 75.8173 7.65979C76.4078 7.87896 76.9219 8.22965 77.3593 8.71184L74.3736 12.4927C74.1549 12.2516 73.8814 12.0653 73.5533 11.9338C73.2252 11.8023 72.8534 11.7365 72.4378 11.7365C71.6066 11.7365 70.9395 11.9995 70.4364 12.5255C69.9551 13.0297 69.7145 13.7968 69.7145 14.8269Z" fill="white"/>
<path d="M78.6005 23.605V7.62691H83.6205V23.605H78.6005ZM83.6205 14.8269L81.5206 13.1831C81.9362 11.3201 82.6362 9.87349 83.6205 8.84335C84.6048 7.81321 85.9719 7.29814 87.7218 7.29814C88.4873 7.29814 89.1545 7.41869 89.7232 7.65979C90.3138 7.87896 90.8278 8.22965 91.2653 8.71184L88.2795 12.4927C88.0608 12.2516 87.7874 12.0653 87.4593 11.9338C87.1312 11.8023 86.7593 11.7365 86.3437 11.7365C85.5125 11.7365 84.8454 11.9995 84.3423 12.5255C83.8611 13.0297 83.6205 13.7968 83.6205 14.8269Z" fill="white"/>
<path d="M99.8316 23.9666C98.1911 23.9666 96.7037 23.605 95.3694 22.8817C94.057 22.1365 93.018 21.1283 92.2524 19.857C91.4868 18.5858 91.104 17.1612 91.104 15.5831C91.104 14.005 91.4868 12.5913 92.2524 11.342C93.018 10.0927 94.057 9.10636 95.3694 8.38307C96.6818 7.63787 98.1692 7.26527 99.8316 7.26527C101.494 7.26527 102.981 7.62691 104.294 8.3502C105.606 9.07348 106.645 10.0707 107.411 11.342C108.176 12.5913 108.559 14.005 108.559 15.5831C108.559 17.1612 108.176 18.5858 107.411 19.857C106.645 21.1283 105.606 22.1365 104.294 22.8817C102.981 23.605 101.494 23.9666 99.8316 23.9666ZM99.8316 19.3968C100.553 19.3968 101.188 19.2433 101.735 18.9365C102.281 18.6077 102.697 18.1584 102.981 17.5886C103.288 16.9968 103.441 16.3283 103.441 15.5831C103.441 14.8379 103.288 14.1913 102.981 13.6433C102.675 13.0735 102.249 12.6351 101.702 12.3283C101.177 11.9995 100.553 11.8351 99.8316 11.8351C99.1316 11.8351 98.5082 11.9995 97.9614 12.3283C97.4146 12.6351 96.988 13.0735 96.6818 13.6433C96.3756 14.2132 96.2225 14.8707 96.2225 15.6159C96.2225 16.3392 96.3756 16.9968 96.6818 17.5886C96.988 18.1584 97.4146 18.6077 97.9614 18.9365C98.5082 19.2433 99.1316 19.3968 99.8316 19.3968Z" fill="white"/>
<path d="M111.058 23.605V7.62691H116.078V23.605H111.058ZM116.078 14.8269L113.978 13.1831C114.394 11.3201 115.094 9.87349 116.078 8.84335C117.063 7.81321 118.43 7.29814 120.18 7.29814C120.945 7.29814 121.612 7.41869 122.181 7.65979C122.772 7.87896 123.286 8.22965 123.723 8.71184L120.737 12.4927C120.519 12.2516 120.245 12.0653 119.917 11.9338C119.589 11.8023 119.217 11.7365 118.802 11.7365C117.97 11.7365 117.303 11.9995 116.8 12.5255C116.319 13.0297 116.078 13.7968 116.078 14.8269Z" fill="white"/>
</svg>
