<svg width="89" height="18" viewBox="0 0 89 18" fill="none" xmlns="http://www.w3.org/2000/svg">
<path d="M9.68478 17.3513C8.43283 17.3513 7.27477 17.134 6.21062 16.6993C5.16211 16.2646 4.2388 15.6591 3.44068 14.8828C2.64256 14.1066 2.02441 13.2061 1.58623 12.1815C1.14805 11.1413 0.928955 10.0235 0.928955 8.82803C0.928955 7.61707 1.14805 6.49926 1.58623 5.47461C2.02441 4.44995 2.63474 3.55726 3.4172 2.79652C4.19967 2.02027 5.11516 1.42255 6.16367 1.00337C7.22783 0.56867 8.38588 0.351318 9.63783 0.351318C10.8741 0.351318 12.0165 0.56867 13.065 1.00337C14.1292 1.42255 15.0525 2.02027 15.835 2.79652C16.6331 3.55726 17.2512 4.45771 17.6894 5.49789C18.1276 6.52255 18.3467 7.64036 18.3467 8.85132C18.3467 10.0468 18.1276 11.1646 17.6894 12.2047C17.2512 13.2294 16.6409 14.1299 15.8585 14.9061C15.076 15.6668 14.1527 16.2646 13.0885 16.6993C12.04 17.134 10.9054 17.3513 9.68478 17.3513ZM9.63783 14.0212C10.6237 14.0212 11.4845 13.8038 12.22 13.3691C12.9711 12.9344 13.5502 12.3289 13.9571 11.5527C14.3639 10.7609 14.5674 9.85269 14.5674 8.82803C14.5674 8.05178 14.45 7.35314 14.2153 6.73214C13.9805 6.09561 13.6441 5.55223 13.2059 5.102C12.7677 4.63625 12.2434 4.28694 11.6331 4.05406C11.0384 3.80566 10.3733 3.68146 9.63783 3.68146C8.65192 3.68146 7.78338 3.89881 7.03221 4.33351C6.29669 4.75269 5.72549 5.35041 5.3186 6.12666C4.91172 6.88739 4.70828 7.78785 4.70828 8.82803C4.70828 9.60429 4.82565 10.3107 5.06039 10.9472C5.29513 11.5837 5.62377 12.1349 6.0463 12.6006C6.48448 13.0509 7.00873 13.4002 7.61906 13.6486C8.22938 13.897 8.90231 14.0212 9.63783 14.0212Z" fill="white"/>
<path d="M20.6862 17.0719V0.630771H24.3716V17.0719H20.6862ZM23.5031 10.6212V7.47735H31.7894V10.6212H23.5031ZM23.5031 3.77461V0.630771H32.165V3.77461H23.5031Z" fill="white"/>
<path d="M39.4706 17.328C38.2343 17.328 37.131 17.0796 36.1608 16.5828C35.2061 16.0705 34.455 15.3641 33.9072 14.4636C33.3595 13.5632 33.0857 12.5463 33.0857 11.413C33.0857 10.2796 33.3517 9.2705 33.8838 8.38556C34.4315 7.48511 35.167 6.77872 36.0903 6.26639C37.0136 5.75406 38.0543 5.49789 39.2124 5.49789C40.3391 5.49789 41.3329 5.73853 42.1936 6.21981C43.0543 6.70109 43.7272 7.36867 44.2124 8.22255C44.7131 9.07643 44.9635 10.0545 44.9635 11.1568C44.9635 11.3586 44.9479 11.576 44.9166 11.8089C44.9009 12.0262 44.8618 12.2824 44.7992 12.5773L34.9636 12.6006V10.1554L43.2734 10.1321L41.7241 11.1568C41.7085 10.5047 41.6067 9.96913 41.4189 9.54995C41.2311 9.11525 40.9495 8.78922 40.5739 8.57187C40.2139 8.33899 39.7679 8.22255 39.2359 8.22255C38.6725 8.22255 38.1795 8.35452 37.757 8.61844C37.3501 8.86684 37.0293 9.22392 36.7946 9.68967C36.5755 10.1554 36.4659 10.7221 36.4659 11.3897C36.4659 12.0573 36.5833 12.6317 36.818 13.113C37.0684 13.5787 37.4127 13.9436 37.8509 14.2075C38.3047 14.4559 38.8368 14.5801 39.4471 14.5801C40.0105 14.5801 40.5191 14.4869 40.9729 14.3006C41.4268 14.0988 41.8258 13.8038 42.1701 13.4157L44.1419 15.3719C43.5786 16.0239 42.8978 16.513 42.0997 16.839C41.3016 17.165 40.4252 17.328 39.4706 17.328Z" fill="white"/>
<path d="M46.6971 17.0719V5.75406H50.2886V17.0719H46.6971ZM50.2886 10.8541L48.7863 9.68967C49.0836 8.37004 49.5844 7.34538 50.2886 6.6157C50.9929 5.88602 51.971 5.52118 53.2229 5.52118C53.7706 5.52118 54.2479 5.60657 54.6548 5.77735C55.0774 5.9326 55.4451 6.181 55.7581 6.52255L53.622 9.20063C53.4655 9.02986 53.2699 8.89789 53.0351 8.80474C52.8004 8.71159 52.5343 8.66502 52.237 8.66502C51.6423 8.66502 51.165 8.85132 50.8051 9.22392C50.4608 9.581 50.2886 10.1244 50.2886 10.8541Z" fill="white"/>
<path d="M56.6461 17.0719V5.75406H60.2376V17.0719H56.6461ZM60.2376 10.8541L58.7353 9.68967C59.0326 8.37004 59.5334 7.34538 60.2376 6.6157C60.9418 5.88602 61.9199 5.52118 63.1719 5.52118C63.7196 5.52118 64.1969 5.60657 64.6038 5.77735C65.0263 5.9326 65.3941 6.181 65.7071 6.52255L63.5709 9.20063C63.4144 9.02986 63.2188 8.89789 62.9841 8.80474C62.7493 8.71159 62.4833 8.66502 62.186 8.66502C61.5913 8.66502 61.114 8.85132 60.754 9.22392C60.4098 9.581 60.2376 10.1244 60.2376 10.8541Z" fill="white"/>
<path d="M71.8358 17.328C70.6621 17.328 69.5979 17.0719 68.6433 16.5595C67.7044 16.0317 66.961 15.3175 66.4133 14.4171C65.8656 13.5166 65.5917 12.5075 65.5917 11.3897C65.5917 10.2719 65.8656 9.2705 66.4133 8.38556C66.961 7.50063 67.7044 6.802 68.6433 6.28968C69.5823 5.76182 70.6465 5.49789 71.8358 5.49789C73.0252 5.49789 74.0893 5.75406 75.0283 6.26639C75.9672 6.77872 76.7106 7.48511 77.2583 8.38556C77.806 9.2705 78.0799 10.2719 78.0799 11.3897C78.0799 12.5075 77.806 13.5166 77.2583 14.4171C76.7106 15.3175 75.9672 16.0317 75.0283 16.5595C74.0893 17.0719 73.0252 17.328 71.8358 17.328ZM71.8358 14.091C72.3522 14.091 72.8061 13.9824 73.1973 13.765C73.5885 13.5321 73.8859 13.2139 74.0893 12.8102C74.3084 12.391 74.418 11.9175 74.418 11.3897C74.418 10.8618 74.3084 10.4038 74.0893 10.0157C73.8702 9.61205 73.5651 9.30155 73.1738 9.0842C72.7982 8.85132 72.3522 8.73488 71.8358 8.73488C71.335 8.73488 70.889 8.85132 70.4978 9.0842C70.1066 9.30155 69.8014 9.61205 69.5823 10.0157C69.3632 10.4194 69.2537 10.8851 69.2537 11.413C69.2537 11.9253 69.3632 12.391 69.5823 12.8102C69.8014 13.2139 70.1066 13.5321 70.4978 13.765C70.889 13.9824 71.335 14.091 71.8358 14.091Z" fill="white"/>
<path d="M79.868 17.0719V5.75406H83.4595V17.0719H79.868ZM83.4595 10.8541L81.9572 9.68967C82.2545 8.37004 82.7553 7.34538 83.4595 6.6157C84.1637 5.88602 85.1418 5.52118 86.3938 5.52118C86.9415 5.52118 87.4188 5.60657 87.8257 5.77735C88.2482 5.9326 88.616 6.181 88.929 6.52255L86.7928 9.20063C86.6363 9.02986 86.4407 8.89789 86.206 8.80474C85.9712 8.71159 85.7052 8.66502 85.4078 8.66502C84.8132 8.66502 84.3359 8.85132 83.9759 9.22392C83.6316 9.581 83.4595 10.1244 83.4595 10.8541Z" fill="white"/>
</svg>
