<svg width="89" height="18" viewBox="0 0 89 18" fill="none" xmlns="http://www.w3.org/2000/svg">
<path d="M9.68478 17.3513C8.43283 17.3513 7.27477 17.1339 6.21062 16.6992C5.16211 16.2645 4.2388 15.659 3.44068 14.8828C2.64256 14.1065 2.02441 13.2061 1.58623 12.1814C1.14805 11.1412 0.928955 10.0234 0.928955 8.82797C0.928955 7.61701 1.14805 6.4992 1.58623 5.47454C2.02441 4.44989 2.63474 3.55719 3.4172 2.79646C4.19967 2.02021 5.11516 1.42249 6.16367 1.00331C7.22783 0.568609 8.38588 0.351257 9.63783 0.351257C10.8741 0.351257 12.0165 0.568609 13.065 1.00331C14.1292 1.42249 15.0525 2.02021 15.835 2.79646C16.6331 3.55719 17.2512 4.45765 17.6894 5.49783C18.1276 6.52249 18.3467 7.6403 18.3467 8.85126C18.3467 10.0467 18.1276 11.1645 17.6894 12.2047C17.2512 13.2293 16.6409 14.1298 15.8585 14.9061C15.076 15.6668 14.1527 16.2645 13.0885 16.6992C12.04 17.1339 10.9054 17.3513 9.68478 17.3513ZM9.63783 14.0211C10.6237 14.0211 11.4845 13.8038 12.22 13.3691C12.9711 12.9344 13.5502 12.3289 13.9571 11.5526C14.3639 10.7608 14.5674 9.85263 14.5674 8.82797C14.5674 8.05171 14.45 7.35308 14.2153 6.73208C13.9805 6.09555 13.6441 5.55217 13.2059 5.10194C12.7677 4.63619 12.2434 4.28687 11.6331 4.054C11.0384 3.8056 10.3733 3.68139 9.63783 3.68139C8.65192 3.68139 7.78338 3.89875 7.03221 4.33345C6.29669 4.75263 5.72549 5.35034 5.3186 6.1266C4.91172 6.88733 4.70828 7.78779 4.70828 8.82797C4.70828 9.60423 4.82565 10.3106 5.06039 10.9471C5.29513 11.5837 5.62377 12.1348 6.0463 12.6006C6.48448 13.0508 7.00873 13.4001 7.61906 13.6485C8.22938 13.8969 8.90231 14.0211 9.63783 14.0211Z" fill="white"/>
<path d="M20.6862 17.0718V0.63071H24.3716V17.0718H20.6862ZM23.5031 10.6211V7.47728H31.7894V10.6211H23.5031ZM23.5031 3.77454V0.63071H32.165V3.77454H23.5031Z" fill="white"/>
<path d="M39.4706 17.328C38.2343 17.328 37.131 17.0796 36.1608 16.5828C35.2061 16.0704 34.455 15.364 33.9072 14.4636C33.3595 13.5631 33.0857 12.5462 33.0857 11.4129C33.0857 10.2796 33.3517 9.27044 33.8838 8.3855C34.4315 7.48505 35.167 6.77865 36.0903 6.26633C37.0136 5.754 38.0543 5.49783 39.2124 5.49783C40.3391 5.49783 41.3329 5.73847 42.1936 6.21975C43.0543 6.70103 43.7272 7.36861 44.2124 8.22249C44.7131 9.07637 44.9635 10.0545 44.9635 11.1567C44.9635 11.3586 44.9479 11.5759 44.9166 11.8088C44.9009 12.0261 44.8618 12.2823 44.7992 12.5773L34.9636 12.6006V10.1554L43.2734 10.1321L41.7241 11.1567C41.7085 10.5047 41.6067 9.96907 41.4189 9.54989C41.2311 9.11519 40.9495 8.78916 40.5739 8.57181C40.2139 8.33893 39.7679 8.22249 39.2359 8.22249C38.6725 8.22249 38.1795 8.35445 37.757 8.61838C37.3501 8.86678 37.0293 9.22386 36.7946 9.68961C36.5755 10.1554 36.4659 10.722 36.4659 11.3896C36.4659 12.0572 36.5833 12.6316 36.818 13.1129C37.0684 13.5787 37.4127 13.9435 37.8509 14.2074C38.3047 14.4558 38.8368 14.58 39.4471 14.58C40.0105 14.58 40.5191 14.4869 40.9729 14.3006C41.4268 14.0987 41.8258 13.8038 42.1701 13.4156L44.1419 15.3718C43.5786 16.0239 42.8978 16.5129 42.0997 16.8389C41.3016 17.165 40.4252 17.328 39.4706 17.328Z" fill="white"/>
<path d="M46.6971 17.0718V5.754H50.2886V17.0718H46.6971ZM50.2886 10.854L48.7863 9.68961C49.0836 8.36998 49.5844 7.34532 50.2886 6.61564C50.9929 5.88596 51.971 5.52112 53.2229 5.52112C53.7706 5.52112 54.2479 5.60651 54.6548 5.77728C55.0774 5.93254 55.4451 6.18094 55.7581 6.52249L53.622 9.20057C53.4655 9.0298 53.2699 8.89783 53.0351 8.80468C52.8004 8.71153 52.5343 8.66496 52.237 8.66496C51.6423 8.66496 51.165 8.85126 50.8051 9.22386C50.4608 9.58094 50.2886 10.1243 50.2886 10.854Z" fill="white"/>
<path d="M56.6461 17.0718V5.754H60.2376V17.0718H56.6461ZM60.2376 10.854L58.7353 9.68961C59.0326 8.36998 59.5334 7.34532 60.2376 6.61564C60.9418 5.88596 61.9199 5.52112 63.1719 5.52112C63.7196 5.52112 64.1969 5.60651 64.6038 5.77728C65.0263 5.93254 65.3941 6.18094 65.7071 6.52249L63.5709 9.20057C63.4144 9.0298 63.2188 8.89783 62.9841 8.80468C62.7493 8.71153 62.4833 8.66496 62.186 8.66496C61.5913 8.66496 61.114 8.85126 60.754 9.22386C60.4098 9.58094 60.2376 10.1243 60.2376 10.854Z" fill="white"/>
<path d="M71.8358 17.328C70.6621 17.328 69.5979 17.0718 68.6433 16.5595C67.7044 16.0316 66.961 15.3175 66.4133 14.417C65.8656 13.5166 65.5917 12.5074 65.5917 11.3896C65.5917 10.2718 65.8656 9.27044 66.4133 8.3855C66.961 7.50057 67.7044 6.80194 68.6433 6.28961C69.5823 5.76176 70.6465 5.49783 71.8358 5.49783C73.0252 5.49783 74.0893 5.754 75.0283 6.26633C75.9672 6.77865 76.7106 7.48505 77.2583 8.3855C77.806 9.27044 78.0799 10.2718 78.0799 11.3896C78.0799 12.5074 77.806 13.5166 77.2583 14.417C76.7106 15.3175 75.9672 16.0316 75.0283 16.5595C74.0893 17.0718 73.0252 17.328 71.8358 17.328ZM71.8358 14.091C72.3522 14.091 72.8061 13.9823 73.1973 13.765C73.5885 13.5321 73.8859 13.2138 74.0893 12.8102C74.3084 12.391 74.418 11.9175 74.418 11.3896C74.418 10.8618 74.3084 10.4038 74.0893 10.0156C73.8702 9.61199 73.5651 9.30149 73.1738 9.08413C72.7982 8.85126 72.3522 8.73482 71.8358 8.73482C71.335 8.73482 70.889 8.85126 70.4978 9.08413C70.1066 9.30149 69.8014 9.61199 69.5823 10.0156C69.3632 10.4193 69.2537 10.885 69.2537 11.4129C69.2537 11.9252 69.3632 12.391 69.5823 12.8102C69.8014 13.2138 70.1066 13.5321 70.4978 13.765C70.889 13.9823 71.335 14.091 71.8358 14.091Z" fill="white"/>
<path d="M79.868 17.0718V5.754H83.4595V17.0718H79.868ZM83.4595 10.854L81.9572 9.68961C82.2545 8.36998 82.7553 7.34532 83.4595 6.61564C84.1637 5.88596 85.1418 5.52112 86.3938 5.52112C86.9415 5.52112 87.4188 5.60651 87.8257 5.77728C88.2482 5.93254 88.616 6.18094 88.929 6.52249L86.7928 9.20057C86.6363 9.0298 86.4407 8.89783 86.206 8.80468C85.9712 8.71153 85.7052 8.66496 85.4078 8.66496C84.8132 8.66496 84.3359 8.85126 83.9759 9.22386C83.6316 9.58094 83.4595 10.1243 83.4595 10.854Z" fill="white"/>
</svg>
